<svg version="1.1" viewBox="0.0 0.0 438.0 166.0" fill="none" stroke="none" stroke-linecap="square" stroke-miterlimit="10" xmlns:xlink="http://www.w3.org/1999/xlink" xmlns="http://www.w3.org/2000/svg"><clipPath id="p.0"><path d="m0 0l438.0 0l0 166.0l-438.0 0l0 -166.0z" clip-rule="nonzero"/></clipPath><g clip-path="url(#p.0)"><path fill="#000000" fill-opacity="0.0" d="m0 0l438.0 0l0 166.0l-438.0 0z" fill-rule="evenodd"/><path fill="#000000" fill-opacity="0.0" d="m-0.2926509 -14.0l447.11813 0l0 116.34646l-447.11813 0z" fill-rule="evenodd"/><path fill="#ffffff" d="m79.01985 13.799995q-0.546875 13.515625 -0.546875 28.953125q0 15.53125 0.546875 29.046875l-28.625004 0l-19.374998 -43.6875l1.4531231 43.6875l-20.5625 0q0.640625 -15.515625 0.640625 -29.046875q0 -13.4375 -0.640625 -28.953125l29.4375 0l19.4375 44.875l-1.359375 -44.875l19.593754 0zm25.285553 43.359375q30.40625 -0.15625 44.078125 -0.875q-0.5625 3.28125 -0.6875 6.765625q-0.109375 3.46875 -0.109375 8.75l-62.15625 0q0.640625 -15.515625 0.640625 -29.046875q0 -13.515625 -0.640625 -29.03125l62.15625 0l0 14.484375l-43.28125 0l0 7.671875q3.84375 0.078125 11.359375 0.078125q12.71875 0 26.328125 -0.46875l0 13.75q-13.609375 -0.484375 -26.328125 -0.484375q-7.515625 0 -11.359375 0.09375l0 8.3125zm97.844315 -43.515625l19.84375 0l0 31.84375q-0.171875 11.75 -8.046875 19.4375q-7.875 7.671875 -26.515625 7.671875q-18.890625 0 -25.84375 -7.3125q-6.953125 -7.328125 -6.796875 -19.25l0 -32.390625l19.84375 0l0 31.109375q0 3.53125 0.515625 5.734375q0.515625 2.1875 3.359375 4.109375q2.84375 1.921875 9.15625 1.921875q6.875 0 10.078125 -1.953125q3.203125 -1.96875 3.796875 -4.359375q0.609375 -2.40625 0.609375 -6.171875l0 -30.390625zm90.474915 19.4375q0 6.953125 -3.40625 11.765625q-3.390625 4.796875 -11.625 6.953125q0.953125 1.28125 1.359375 2.0l12.953125 18.0l-21.765625 0q-3.515625 -6.5625 -11.109375 -18.5625l-11.76561 0l0 18.5625l-18.875 0q0.640625 -15.515625 0.640625 -29.046875q0 -13.515625 -0.640625 -29.03125l18.875 0l0 0.078125l16.406235 0q16.15625 0 22.546875 5.203125q6.40625 5.203125 6.40625 14.078125zm-45.35936 -3.921875l0 9.125l10.79686 0q6.8125 0 10.28125 -0.4375q3.484375 -0.453125 4.84375 -1.40625q1.359375 -0.953125 1.359375 -2.796875q0 -1.765625 -1.28125 -2.71875q-1.28125 -0.96875 -4.796875 -1.359375q-3.515625 -0.40625 -10.40625 -0.40625l-10.79686 0zm97.449295 42.640625q-1.53125 -4.5625 -4.09375 -11.4375l-25.515625 0l-4.0 11.4375l-20.078125 0l22.40625 -58.078125l29.4375 0l22.5625 58.078125l-20.71875 0zm-8.640625 -23.921875q-3.046875 -8.390625 -6.25 -16.796875l-1.921875 -5.203125q-2.796875 7.28125 -8.234375 22.0l16.40625 0zm51.51181 7.765625q23.203125 -0.15625 38.40625 -0.796875q-1.046875 4.078125 -1.296875 7.84375q-0.234375 3.75 -0.234375 9.109375l-56.390625 0q0.640625 -15.515625 0.640625 -29.046875q0 -13.515625 -0.640625 -29.03125l19.515625 0l0 41.921875z" fill-rule="nonzero"/><path fill="#000000" fill-opacity="0.0" d="m10.959317 67.08662l426.58267 0l0 116.34646l-426.58267 0z" fill-rule="evenodd"/><path fill="#ffffff" d="m91.162445 94.80849l-5.28125 12.234375q-6.96875 16.25 -10.96875 26.015625q-4.0 9.75 -7.359375 19.828125l-23.906254 0q-3.28125 -9.921875 -7.25 -19.640625q-3.953125 -9.71875 -10.593748 -24.921875q-1.125 -2.5625 -5.84375 -13.515625l22.234373 0q2.40625 7.765625 7.125 19.921875q4.15625 10.71875 6.71875 18.5625q1.6875 -5.53125 4.046875 -11.8125q2.359375 -6.28125 2.828125 -7.640625q4.640629 -12.234375 6.812504 -19.03125l21.4375 0zm50.724304 15.921875q-9.53125 -0.484375 -14.09375 -0.5625l0 27.359375q4.640625 -0.078125 14.09375 -0.5625l0 15.921875l-46.484375 0l0 -15.921875q9.203125 0.484375 14.0 0.5625l0 -27.359375q-4.796875 0.078125 -14.0 0.5625l0 -15.921875l46.484375 0l0 15.921875zm6.395569 35.28125q2.71875 -4.078125 4.515625 -7.59375q1.796875 -3.53125 3.484375 -8.171875q5.671875 3.28125 13.1875 5.125q7.53125 1.828125 14.015625 1.828125q6.640625 0 9.359375 -1.15625q2.71875 -1.15625 2.71875 -2.515625q0 -4.875 -14.890625 -4.875q-16.3125 0 -23.671875 -3.40625q-7.359375 -3.40625 -7.359375 -11.0q0 -10.796875 8.953125 -15.921875q8.96875 -5.125 23.28125 -5.125q8.328125 0 17.078125 2.125q8.765625 2.125 15.8125 5.796875q-2.328125 5.28125 -4.890625 12.890625q-0.484375 1.59375 -0.796875 2.390625q-4.078125 -3.28125 -12.328125 -5.46875q-8.234375 -2.203125 -14.546875 -2.203125q-7.609375 0 -10.25 1.0q-2.640625 1.0 -2.640625 2.921875q0 1.921875 3.640625 3.078125q3.640625 1.15625 10.53125 1.15625q16.953125 0 24.625 3.890625q7.6875 3.875 7.6875 11.875q0 11.1875 -8.15625 16.109375q-8.15625 4.921875 -24.71875 4.921875q-8.890625 0 -18.09375 -1.953125q-9.1875 -1.96875 -16.546875 -5.71875zm120.4043 -35.28125q-9.53125 -0.484375 -14.093735 -0.5625l0 27.359375q4.6406097 -0.078125 14.093735 -0.5625l0 15.921875l-46.48436 0l0 -15.921875q9.203125 0.484375 14.0 0.5625l0 -27.359375q-4.796875 0.078125 -14.0 0.5625l0 -15.921875l46.48436 0l0 15.921875z" fill-rule="nonzero"/><path fill="#000000" fill-opacity="0.0" d="m281.20078 125.25984l0 0c0 -14.446381 12.768707 -26.157478 28.519684 -26.157478l0 0c15.751007 0 28.519684 11.711098 28.519684 26.157478l0 0c0 14.446381 -12.768677 26.157486 -28.519684 26.157486l0 0c-15.750977 0 -28.519684 -11.711105 -28.519684 -26.157486z" fill-rule="evenodd"/><path stroke="#ffffff" stroke-width="12.0" stroke-linejoin="round" stroke-linecap="butt" d="m281.20078 125.25984l0 0c0 -14.446381 12.768707 -26.157478 28.519684 -26.157478l0 0c15.751007 0 28.519684 11.711098 28.519684 26.157478l0 0c0 14.446381 -12.768677 26.157486 -28.519684 26.157486l0 0c-15.750977 0 -28.519684 -11.711105 -28.519684 -26.157486z" fill-rule="evenodd"/><path fill="#000000" fill-opacity="0.0" d="m296.96204 125.26275l0 0c0 -7.0448914 5.711029 -12.755905 12.75592 -12.755905l0 0c3.3830566 0 6.627594 1.3439255 9.019775 3.7361221c2.392212 2.3921967 3.7361145 5.636711 3.7361145 9.019783l0 0c0 7.044899 -5.7109985 12.755913 -12.75589 12.755913l0 0c-7.0448914 0 -12.75592 -5.711014 -12.75592 -12.755913z" fill-rule="evenodd"/><path stroke="#698cc7" stroke-width="8.0" stroke-linejoin="round" stroke-linecap="butt" d="m296.96204 125.26275l0 0c0 -7.0448914 5.711029 -12.755905 12.75592 -12.755905l0 0c3.3830566 0 6.627594 1.3439255 9.019775 3.7361221c2.392212 2.3921967 3.7361145 5.636711 3.7361145 9.019783l0 0c0 7.044899 -5.7109985 12.755913 -12.75589 12.755913l0 0c-7.0448914 0 -12.75592 -5.711014 -12.75592 -12.755913z" fill-rule="evenodd"/><path fill="#000000" fill-opacity="0.0" d="m296.96674 125.25806l0 0c0 -7.0448914 5.711029 -12.755905 12.75592 -12.755905l0 0c3.3830566 0 6.6275635 1.3439255 9.019775 3.7361221c2.3921814 2.3921967 3.7361145 5.636711 3.7361145 9.019783l0 0c0 7.0448914 -5.7109985 12.755905 -12.75589 12.755905l0 0c-7.0448914 0 -12.75592 -5.711014 -12.75592 -12.755905z" fill-rule="evenodd"/><path stroke="#ffffff" stroke-width="4.0" stroke-linejoin="round" stroke-linecap="butt" stroke-dasharray="16.0,12.0" d="m296.96674 125.25806l0 0c0 -7.0448914 5.711029 -12.755905 12.75592 -12.755905l0 0c3.3830566 0 6.6275635 1.3439255 9.019775 3.7361221c2.3921814 2.3921967 3.7361145 5.636711 3.7361145 9.019783l0 0c0 7.0448914 -5.7109985 12.755905 -12.75589 12.755905l0 0c-7.0448914 0 -12.75592 -5.711014 -12.75592 -12.755905z" fill-rule="evenodd"/><path fill="#000000" fill-opacity="0.0" d="m339.89896 67.08662l113.82675 0l0 116.34646l-113.82675 0z" fill-rule="evenodd"/><path fill="#ffffff" d="m419.21146 94.88661q-0.546875 13.515625 -0.546875 28.953125q0 15.53125 0.546875 29.046875l-28.625 0l-19.375 -43.6875l1.453125 43.6875l-20.5625 0q0.640625 -15.515625 0.640625 -29.046875q0 -13.4375 -0.640625 -28.953125l29.4375 0l19.4375 44.875l-1.359375 -44.875l19.59375 0z" fill-rule="nonzero"/></g></svg>